<?xml version="1.0" encoding="UTF-8" standalone="no"?>
<!-- Created with Inkscape (http://www.inkscape.org/) -->
<svg xmlns:inkscape="http://www.inkscape.org/namespaces/inkscape" xmlns:sodipodi="http://sodipodi.sourceforge.net/DTD/sodipodi-0.dtd" xmlns="http://www.w3.org/2000/svg" xmlns:svg="http://www.w3.org/2000/svg" version="1.1" id="svg2" xml:space="preserve" width="1088.9733" height="417.98666" viewBox="0 0 1088.9733 417.98666" sodipodi:docname="AdaptiveShield_logo.svg" inkscape:version="1.1.1 (3bf5ae0d25, 2021-09-20)">
  <defs id="defs6">
    <clipPath id="clipPath18">
      <path d="M 0,0 H 1018.6 V 3134.9 H 0 Z" id="path16"></path>
    </clipPath>
    <clipPath id="clipPath30">
      <path d="m 1764.21,0 h 1018.6 v 3134.9 h -1018.6 z" id="path28"></path>
    </clipPath>
  </defs>
  <g id="g8" inkscape:groupmode="layer" inkscape:label="ink_ext_XXXXXX" transform="matrix(1.3333333,0,0,-1.3333333,0,417.98667)">
    <g id="g10" transform="scale(0.1)">
      <g id="g12">
        <g id="g14" clip-path="url(#clipPath18)">
          <path d="m 1018.6,3134.88 h -10.17 c 3.38,0.01 6.78,0.02 10.17,0.02 v 0 -0.02" style="fill:#ffffff;fill-opacity:1;fill-rule:nonzero;stroke:none" id="path20"></path>
          <path d="m 1018.6,0 c 0,0 -530.061,242.32 -817.78,923.809 C -62.793,1548.14 4.05859,2655.45 17.1484,2836.84 c 1.168,16.26 9.6797,30.99 23.4336,39.74 87.703,55.76 438.777,255.76 967.848,258.3 h 10.17 v -129.34 c -134.416,-51.52 -224.776,-104.4 -263.541,-129.01 -13.801,-8.75 -22.243,-23.41 -23.411,-39.69 C 718.586,2655.45 651.711,1548.14 915.324,923.809 947.105,848.512 981.957,778.941 1018.6,714.121 V 0" style="fill:#5ec9c4;fill-opacity:1;fill-rule:nonzero;stroke:none" id="path22"></path>
        </g>
      </g>
      <g id="g24">
        <g id="g26" clip-path="url(#clipPath30)">
          <path d="m 1774.38,3134.88 h -10.17 v 0.02 h -0.01 c 3.4,0 6.8,-0.01 10.18,-0.02" style="fill:#ffffff;fill-opacity:1;fill-rule:nonzero;stroke:none" id="path32"></path>
          <path d="m 1764.21,0 v 714.121 c 36.64,64.82 71.5,134.418 103.28,209.688 263.59,624.331 196.74,1731.641 183.67,1913.031 -1.17,16.28 -9.63,30.94 -23.41,39.69 -38.76,24.61 -129.15,77.49 -263.54,129.01 v 129.34 h 10.17 c 529.05,-2.54 880.15,-202.54 967.82,-258.3 13.76,-8.75 22.32,-23.48 23.46,-39.74 13.09,-181.39 79.95,-1288.7 -183.67,-1913.031 C 2294.25,242.32 1764.21,0 1764.21,0" style="fill:#5ec9c4;fill-opacity:1;fill-rule:nonzero;stroke:none" id="path34"></path>
        </g>
      </g>
      <path d="m 7764.48,1593.77 v 1162.25 c 0,1.51 1.23,2.73 2.73,2.73 h 393.87 c 1.51,0 2.73,-1.22 2.73,-2.73 v -158.23 c 0,-1.51 -1.22,-2.74 -2.73,-2.74 h -204.06 c -1.51,0 -2.73,-1.21 -2.73,-2.72 v -323.27 c 0,-1.51 1.22,-2.72 2.73,-2.72 h 195.43 c 1.51,0 2.73,-1.23 2.73,-2.73 v -158.24 c 0,-1.51 -1.22,-2.73 -2.73,-2.73 h -195.43 c -1.51,0 -2.73,-1.22 -2.73,-2.73 v -342.45 c 0,-1.5 1.22,-2.73 2.73,-2.73 h 207.58 c 1.51,0 2.73,-1.22 2.73,-2.72 v -158.24 c 0,-1.51 -1.22,-2.73 -2.73,-2.73 h -397.39 c -1.5,0 -2.73,1.22 -2.73,2.73" style="fill:#15181c;fill-opacity:1;fill-rule:nonzero;stroke:none" id="path36"></path>
      <path d="m 6719.5,1593.77 v 1162.25 c 0,1.51 1.22,2.73 2.73,2.73 h 184.45 c 1.51,0 2.73,-1.22 2.73,-2.73 V 1593.77 c 0,-1.51 -1.22,-2.73 -2.73,-2.73 h -184.45 c -1.51,0 -2.73,1.22 -2.73,2.73" style="fill:#15181c;fill-opacity:1;fill-rule:nonzero;stroke:none" id="path38"></path>
      <path d="m 7510.88,2756.52 -171.25,-916.21 c -0.55,-2.97 -4.81,-2.97 -5.36,0 l -171.26,916.21 c -0.24,1.3 -1.37,2.23 -2.68,2.23 h -165.47 c -1.7,0 -2.99,-1.55 -2.68,-3.23 l 217.24,-1162.25 c 0.24,-1.29 1.37,-2.23 2.68,-2.23 h 249.69 c 1.31,0 2.44,0.94 2.68,2.23 l 217.24,1162.25 c 0.31,1.68 -0.98,3.23 -2.68,3.23 h -165.47 c -1.31,0 -2.44,-0.93 -2.68,-2.23" style="fill:#15181c;fill-opacity:1;fill-rule:nonzero;stroke:none" id="path40"></path>
      <path d="m 6298.96,1593.77 v 998.56 c 0,1.51 -1.22,2.72 -2.73,2.72 h -142.89 c -1.5,0 -2.73,1.23 -2.73,2.74 v 158.23 c 0,1.51 1.23,2.73 2.73,2.73 h 481.26 c 1.51,0 2.73,-1.22 2.73,-2.73 v -158.23 c 0,-1.51 -1.22,-2.74 -2.73,-2.74 h -143 c -1.5,0 -2.73,-1.21 -2.73,-2.72 v -998.56 c 0,-1.51 -1.22,-2.73 -2.72,-2.73 h -184.46 c -1.51,0 -2.73,1.22 -2.73,2.73" style="fill:#15181c;fill-opacity:1;fill-rule:nonzero;stroke:none" id="path42"></path>
      <path d="m 5878.53,2241.24 c 0,-39.17 -31.75,-70.93 -70.92,-70.93 h -76.94 c -1.5,0 -2.72,1.23 -2.72,2.73 v 427.98 c 0,1.5 1.22,2.72 2.72,2.72 h 76.94 c 39.17,0 70.92,-31.75 70.92,-70.92 z m -9.8,517.51 h -327.86 c -1.51,0 -2.73,-1.22 -2.73,-2.73 V 1593.77 c 0,-1.51 1.22,-2.73 2.73,-2.73 h 187.08 v 424.32 h 174.49 c 91.68,0 166,74.32 166,166 v 377.68 c 0,110.3 -89.41,199.71 -199.71,199.71" style="fill:#15181c;fill-opacity:1;fill-rule:nonzero;stroke:none" id="path44"></path>
      <path d="m 4444.42,1841.38 c 0,-60.64 -34.75,-95.38 -95.39,-95.38 h -76.2 v 857.74 h 76.2 c 60.64,0 95.39,-34.74 95.39,-95.38 z m -44.77,917.37 h -313.89 c -1.51,0 -2.73,-1.22 -2.73,-2.73 V 1593.77 c 0,-1.51 1.22,-2.73 2.73,-2.73 h 313.94 c 129.58,0 234.63,105.05 234.63,234.63 v 698.41 c 0,129.6 -105.07,234.67 -234.68,234.67" style="fill:#15181c;fill-opacity:1;fill-rule:nonzero;stroke:none" id="path46"></path>
      <path d="m 6567.04,444.539 c 0,-52.68 -42.71,-95.391 -95.38,-95.391 h -73.47 c -1.51,0 -2.73,1.231 -2.73,2.731 v 852.291 c 0,1.51 1.22,2.73 2.73,2.73 h 73.47 c 52.67,0 95.38,-42.7 95.38,-95.38 z m -44.76,917.371 h -313.9 c -1.51,0 -2.73,-1.22 -2.73,-2.73 V 196.93 c 0,-1.508 1.22,-2.731 2.73,-2.731 h 313.94 c 129.58,0 234.63,105.051 234.63,234.633 v 698.408 c 0,129.6 -105.07,234.67 -234.67,234.67" style="fill:#15181c;fill-opacity:1;fill-rule:nonzero;stroke:none" id="path48"></path>
      <path d="m 3461.1,183.699 c -110.3,0 -199.72,89.422 -199.72,199.723 v 230.18 c 0,1.507 1.23,2.73 2.73,2.73 h 179.24 c 1.5,0 2.72,-1.223 2.72,-2.73 V 406.121 c 0,-39.172 31.76,-70.93 70.93,-70.93 h 22.64 c 39.2,0 70.98,31.778 70.98,70.981 v 146.637 c 0,41.25 -18.49,76.101 -53.39,100.82 l -209.04,155.062 c -33.73,24.2 -56.65,48.649 -68.58,73.008 -12.1,24.672 -18.23,57.391 -18.23,97.141 v 229.82 c 0,90.41 73.29,163.69 163.7,163.69 h 204.72 c 90.41,0 163.7,-73.28 163.7,-163.69 V 979.172 c 0,-1.512 -1.22,-2.731 -2.73,-2.731 h -179.23 c -1.51,0 -2.73,1.219 -2.73,2.731 v 170.768 c 0,39.2 -31.78,70.98 -70.98,70.98 h -19.07 c -39.2,0 -70.98,-31.78 -70.98,-70.98 v -115.21 c 0,-41.242 18.49,-76.14 53.39,-100.871 l 209.04,-155.007 c 33.79,-24.293 56.81,-48.543 68.69,-72.364 12.04,-24.078 18.12,-57.008 18.12,-97.828 V 383.422 c 0,-110.301 -89.42,-199.723 -199.72,-199.723 h -136.2" style="fill:#15181c;fill-opacity:1;fill-rule:nonzero;stroke:none" id="path50"></path>
      <path d="m 5685.37,196.93 v 1162.25 c 0,1.51 1.22,2.73 2.73,2.73 h 184.34 c 1.51,0 2.73,-1.22 2.73,-2.73 V 360.621 c 0,-1.5 1.22,-2.73 2.73,-2.73 h 170.92 c 1.51,0 2.73,-1.219 2.73,-2.719 V 196.93 c 0,-1.508 -1.22,-2.731 -2.73,-2.731 H 5688.1 c -1.51,0 -2.73,1.223 -2.73,2.731" style="fill:#15181c;fill-opacity:1;fill-rule:nonzero;stroke:none" id="path52"></path>
      <path d="m 5061.6,196.93 v 1162.25 c 0,1.51 1.22,2.73 2.73,2.73 h 448.43 c 1.51,0 2.73,-1.22 2.73,-2.73 v -158.24 c 0,-1.5 -1.22,-2.72 -2.73,-2.72 h -258.63 c -1.5,0 -2.72,-1.23 -2.72,-2.73 V 872.219 c 0,-1.508 1.22,-2.731 2.72,-2.731 h 250 c 1.51,0 2.73,-1.218 2.73,-2.718 V 708.531 c 0,-1.511 -1.22,-2.73 -2.73,-2.73 h -250 c -1.5,0 -2.72,-1.223 -2.72,-2.731 V 360.621 c 0,-1.5 1.22,-2.73 2.72,-2.73 h 262.15 c 1.51,0 2.73,-1.219 2.73,-2.719 V 196.93 c 0,-1.508 -1.22,-2.731 -2.73,-2.731 h -451.95 c -1.51,0 -2.73,1.223 -2.73,2.731" style="fill:#15181c;fill-opacity:1;fill-rule:nonzero;stroke:none" id="path54"></path>
      <path d="m 4693.18,196.93 v 1162.25 c 0,1.51 1.22,2.73 2.73,2.73 h 184.45 c 1.51,0 2.73,-1.22 2.73,-2.73 V 196.93 c 0,-1.508 -1.22,-2.731 -2.73,-2.731 h -184.45 c -1.51,0 -2.73,1.223 -2.73,2.731" style="fill:#15181c;fill-opacity:1;fill-rule:nonzero;stroke:none" id="path56"></path>
      <path d="m 4326.47,196.93 v 506.14 c 0,1.508 -1.23,2.731 -2.73,2.731 h -171.35 c -1.51,0 -2.73,-1.223 -2.73,-2.731 V 196.93 c 0,-1.508 -1.22,-2.731 -2.73,-2.731 h -184.34 c -1.51,0 -2.73,1.223 -2.73,2.731 v 1162.25 c 0,1.51 1.22,2.73 2.73,2.73 h 184.34 c 1.51,0 2.73,-1.22 2.73,-2.73 V 872.219 c 0,-1.508 1.22,-2.731 2.73,-2.731 h 171.35 c 1.5,0 2.73,1.223 2.73,2.731 v 486.961 c 0,1.51 1.22,2.73 2.72,2.73 h 184.46 c 1.51,0 2.73,-1.22 2.73,-2.73 V 196.93 c 0,-1.508 -1.22,-2.731 -2.73,-2.731 h -184.46 c -1.5,0 -2.72,1.223 -2.72,2.731" style="fill:#15181c;fill-opacity:1;fill-rule:nonzero;stroke:none" id="path58"></path>
      <path d="m 5006.17,2123.72 77.39,386.75 c 0.59,2.92 4.77,2.92 5.35,0 l 77.39,-386.75 c 0.34,-1.69 -0.96,-3.26 -2.68,-3.26 h -154.77 c -1.73,0 -3.02,1.57 -2.68,3.26 z m 268.95,-532.68 h 177.52 c 1.72,0 3.02,1.58 2.68,3.26 l -232.57,1162.26 c -0.25,1.27 -1.37,2.19 -2.67,2.19 H 4952.4 c -1.3,0 -2.42,-0.92 -2.68,-2.19 L 4717.15,1594.3 c -0.34,-1.68 0.95,-3.26 2.67,-3.26 h 177.52 c 1.3,0 2.42,0.92 2.68,2.19 l 71.98,359.72 c 0.26,1.28 1.38,2.2 2.68,2.2 h 223.11 c 1.3,0 2.42,-0.92 2.68,-2.2 l 71.98,-359.72 c 0.25,-1.27 1.37,-2.19 2.67,-2.19" style="fill:#15181c;fill-opacity:1;fill-rule:nonzero;stroke:none" id="path60"></path>
      <path d="m 3551.06,2123.72 77.39,386.74 c 0.58,2.92 4.76,2.92 5.35,0 l 77.38,-386.74 c 0.34,-1.69 -0.95,-3.26 -2.67,-3.26 h -154.77 c -1.73,0 -3.02,1.57 -2.68,3.26 z m 268.95,-532.68 h 177.52 c 1.72,0 3.01,1.58 2.68,3.26 l -232.57,1162.26 c -0.26,1.27 -1.38,2.19 -2.68,2.19 h -267.68 c -1.3,0 -2.42,-0.92 -2.67,-2.19 L 3262.04,1594.3 c -0.34,-1.68 0.95,-3.26 2.67,-3.26 h 177.52 c 1.3,0 2.42,0.92 2.68,2.19 l 71.98,359.72 c 0.25,1.28 1.37,2.2 2.67,2.2 h 223.12 c 1.3,0 2.42,-0.92 2.67,-2.2 l 71.98,-359.72 c 0.26,-1.27 1.38,-2.19 2.68,-2.19" style="fill:#15181c;fill-opacity:1;fill-rule:nonzero;stroke:none" id="path62"></path>
    </g>
  </g>
</svg>
