<svg width="261" height="129" viewBox="0 0 261 129" fill="none" xmlns="http://www.w3.org/2000/svg">
<path d="M36.7568 127.339C30.0491 127.236 21.3292 126.863 17.0983 125.52C12.9705 124.177 9.6683 122.317 7.19165 119.941C4.81818 117.461 3.16708 114.517 2.23833 111.107C1.41278 107.594 1 103.668 1 99.3287V16.5081L24.0639 4.09708V94.6793C24.0639 96.7457 24.2187 98.6055 24.5283 100.259C24.8378 101.912 25.4054 103.307 26.231 104.443C27.1597 105.58 28.4496 106.509 30.1007 107.233C31.7518 107.956 33.5078 107.872 36.7568 107.872V127.339Z" fill="#00BDFF"/>
<path d="M179.724 3.82825C184.058 3.82825 188.031 4.29319 191.643 5.22307C195.254 6.04963 196.047 6.95232 196.047 6.95232V26.0653C193.983 25.1354 191.178 24.5439 188.702 24.1306C186.328 23.614 184.109 23.3557 182.045 23.3557C179.259 23.3557 176.886 23.769 174.925 24.5956C173.068 25.3188 171.571 26.352 170.436 27.6952C169.404 29.0383 168.63 30.6398 168.114 32.4996C167.701 34.3593 167.495 36.3741 167.495 38.5438V42.5733H195.977V61.7908H167.495V127.69H144.431V38.2338C144.431 27.6952 147.372 19.3263 153.254 13.1271C159.24 6.92785 168.063 3.82825 179.724 3.82825Z" fill="#00BDFF"/>
<path d="M208.529 34.753L231.593 22.2993V44.6207H259.287V63.8383H231.593V92.5096C231.593 97.3656 232.418 101.24 234.069 104.133C235.824 107.026 239.281 108.473 244.441 108.473C246.917 108.473 249.445 108.266 252.025 107.853C254.708 107.336 257.12 106.669 259.287 105.842V124.613C256.582 125.854 256.669 125.934 253.264 126.76C249.858 127.587 245.679 128 240.726 128C234.431 128 229.219 127.173 225.092 125.52C220.964 123.764 217.662 121.388 215.185 118.391C212.708 115.292 210.954 111.572 209.922 107.233C208.993 102.893 208.529 98.0889 208.529 92.8195V34.753Z" fill="#00BDFF"/>
<path d="M48.1239 86.7015C48.1239 79.0113 49.8957 72.1245 53.439 66.0412C57.0966 59.9579 62.1828 55.1945 68.6979 51.7511C75.213 48.193 82.6995 46.4139 91.1577 46.4139C99.7302 46.4139 107.16 48.193 113.446 51.7511C119.733 55.1945 124.533 59.9579 127.848 66.0412C131.277 72.1245 132.992 79.0113 132.992 86.7015C132.992 94.3918 131.277 101.336 127.848 107.534C124.533 113.617 119.733 118.438 113.446 121.996C107.16 125.555 99.616 127.334 90.815 127.334C82.5854 127.334 75.213 125.727 68.6979 122.513C62.2971 119.299 57.2679 114.65 53.6103 108.567C49.9527 102.484 48.1239 95.1952 48.1239 86.7015ZM72.2983 86.8737C72.2983 92.8423 74.0128 97.8352 77.4418 101.852C80.8708 105.755 85.2142 107.706 90.472 107.706C96.0727 107.706 100.53 105.755 103.845 101.852C107.16 97.8352 108.817 92.8423 108.817 86.8737C108.817 80.9052 107.16 75.9697 103.845 72.0672C100.53 68.0499 96.0727 66.0412 90.472 66.0412C85.2142 66.0412 80.8708 68.0499 77.4418 72.0672C74.0128 75.9697 72.2983 80.9052 72.2983 86.8737Z" fill="#00BDFF"/>
<path d="M90.5209 1L49.5852 23.7188V46.4375L90.5209 23.7188L131.457 46.4375V23.7188L90.5209 1Z" fill="#00BDFF"/>
</svg>
