<?xml version="1.0" encoding="UTF-8" standalone="no"?>
<!-- Created with Inkscape (http://www.inkscape.org/) -->
<svg xmlns:inkscape="http://www.inkscape.org/namespaces/inkscape" xmlns:sodipodi="http://sodipodi.sourceforge.net/DTD/sodipodi-0.dtd" xmlns="http://www.w3.org/2000/svg" xmlns:svg="http://www.w3.org/2000/svg" version="1.1" id="svg2" xml:space="preserve" width="290" height="45" viewBox="0 0 290 45" sodipodi:docname="Panoptica_tagline.svg" inkscape:version="1.1.1 (3bf5ae0d25, 2021-09-20)">
  <defs id="defs6">
    <clipPath id="clipPath16">
      <path d="M 0,50 H 255.683 V 0 H 0 Z" id="path14"></path>
    </clipPath>
  </defs>
  <g id="g8" inkscape:groupmode="layer" inkscape:label="Panoptica tagline" transform="matrix(1.3333333,0,0,-1.3333333,-27.604272,53.941359)">
    <g id="g10" transform="translate(1.5891549,-1.2534403)">
      <g id="g12" clip-path="url(#clipPath16)">
        <g id="g18" transform="translate(60.5655,28.4713)">
          <path d="M 0,0 H 1.873 C 3.556,0 4.397,0.725 4.397,2.175 4.397,2.957 4.154,3.539 3.667,3.92 3.233,4.248 2.635,4.412 1.873,4.412 H 0 Z m -2.032,5.936 h 3.873 c 3.111,0 4.667,-1.254 4.667,-3.761 0,-2.466 -1.556,-3.699 -4.667,-3.699 H 0 v -3.968 h -2.032 z" style="fill:#13294f;fill-opacity:1;fill-rule:nonzero;stroke:none" id="path20"></path>
        </g>
        <g id="g22" transform="translate(73.5973,27.0109)">
          <path d="m 0,0 -1.794,-0.318 c -0.613,-0.116 -1.053,-0.278 -1.317,-0.484 -0.264,-0.206 -0.397,-0.495 -0.397,-0.865 0,-0.772 0.471,-1.159 1.413,-1.159 0.614,0 1.132,0.201 1.556,0.604 C -0.18,-1.873 0,-1.466 0,-1 Z m -3.333,1.889 h -1.984 c 0.137,0.857 0.566,1.513 1.286,1.968 0.645,0.402 1.455,0.603 2.428,0.603 1.175,0 2.074,-0.301 2.699,-0.905 C 1.635,3.036 1.905,2.365 1.905,1.54 V -4.032 H 0.381 l -0.238,1.016 c -0.646,-0.836 -1.561,-1.254 -2.746,-1.254 -0.942,0 -1.672,0.254 -2.191,0.762 -0.455,0.444 -0.682,1.01 -0.682,1.698 0,0.773 0.28,1.376 0.841,1.81 0.508,0.402 1.296,0.693 2.365,0.873 L 0,1.254 v 0.397 c 0,0.497 -0.164,0.867 -0.492,1.111 -0.286,0.222 -0.677,0.333 -1.174,0.333 -0.985,0 -1.54,-0.402 -1.667,-1.206" style="fill:#13294f;fill-opacity:1;fill-rule:nonzero;stroke:none" id="path24"></path>
        </g>
        <g id="g26" transform="translate(79.3591,22.9791)">
          <path d="m 0,0 h -1.905 v 8.254 h 1.572 L -0.127,7.27 C 0.476,8.084 1.312,8.492 2.38,8.492 3.375,8.492 4.137,8.185 4.666,7.572 5.132,7.032 5.365,6.296 5.365,5.365 V 0 H 3.46 V 5.317 C 3.46,6.449 2.936,7.016 1.889,7.016 1.317,7.016 0.851,6.815 0.492,6.412 0.164,6.042 0,5.576 0,5.016 Z" style="fill:#13294f;fill-opacity:1;fill-rule:nonzero;stroke:none" id="path28"></path>
        </g>
        <g id="g30" transform="translate(90.4698,24.1538)">
          <path d="m 0,0 c 0.751,0 1.312,0.275 1.682,0.825 0.35,0.498 0.524,1.212 0.524,2.143 0,1.058 -0.233,1.836 -0.699,2.333 -0.37,0.402 -0.878,0.604 -1.523,0.604 -0.741,0 -1.302,-0.27 -1.682,-0.81 -0.36,-0.497 -0.54,-1.207 -0.54,-2.127 0,-1.048 0.232,-1.825 0.698,-2.333 C -1.149,0.211 -0.635,0 0,0 m -4.206,2.968 c 0,1.502 0.444,2.64 1.333,3.413 0.73,0.624 1.682,0.936 2.857,0.936 1.365,0 2.418,-0.413 3.159,-1.238 C 3.83,5.328 4.174,4.291 4.174,2.968 4.174,1.465 3.74,0.328 2.873,-0.445 2.142,-1.09 1.18,-1.413 -0.016,-1.413 c -1.355,0 -2.408,0.423 -3.159,1.27 -0.688,0.772 -1.031,1.809 -1.031,3.111" style="fill:#13294f;fill-opacity:1;fill-rule:nonzero;stroke:none" id="path32"></path>
        </g>
        <g id="g34" transform="translate(102.5172,27.1853)">
          <path d="M 0,0 C 0,0.984 -0.233,1.719 -0.699,2.206 -1.069,2.588 -1.561,2.778 -2.175,2.778 -2.884,2.778 -3.444,2.518 -3.857,2 -4.238,1.502 -4.429,0.841 -4.429,0.016 c 0,-1.037 0.233,-1.81 0.699,-2.317 0.391,-0.424 0.899,-0.635 1.523,-0.635 0.731,0 1.286,0.269 1.667,0.809 C -0.18,-1.619 0,-0.91 0,0 m -6.254,4.047 h 1.508 l 0.333,-1.015 c 0.667,0.835 1.571,1.254 2.715,1.254 1.184,0 2.105,-0.419 2.761,-1.254 0.593,-0.762 0.889,-1.768 0.889,-3.016 0,-1.492 -0.407,-2.641 -1.222,-3.444 -0.677,-0.678 -1.539,-1.016 -2.587,-1.016 -1.058,0 -1.889,0.386 -2.492,1.158 v -3.777 h -1.905 z" style="fill:#13294f;fill-opacity:1;fill-rule:nonzero;stroke:none" id="path36"></path>
        </g>
        <g id="g38" transform="translate(110.1835,24.3758)">
          <path d="m 0,0 v -1.444 c -0.444,-0.127 -0.867,-0.191 -1.269,-0.191 -0.816,0 -1.435,0.243 -1.858,0.73 -0.36,0.413 -0.539,0.969 -0.539,1.667 v 4.635 h -1.238 v 1.46 h 1.238 l 0.127,1.984 h 1.777 V 6.857 h 1.746 V 5.397 H -1.762 V 0.699 c 0,-0.551 0.281,-0.826 0.841,-0.826 0.244,0 0.551,0.042 0.921,0.127" style="fill:#13294f;fill-opacity:1;fill-rule:nonzero;stroke:none" id="path40"></path>
        </g>
        <path d="m 113.39,22.979 h -1.905 v 8.254 h 1.905 z m 0.095,9.508 h -2.095 v 1.92 h 2.095 z" style="fill:#13294f;fill-opacity:1;fill-rule:nonzero;stroke:none" id="path42"></path>
        <g id="g44" transform="translate(120.8176,25.6618)">
          <path d="M 0,0 H 2.032 C 1.873,-0.921 1.434,-1.646 0.715,-2.175 0.037,-2.672 -0.799,-2.921 -1.793,-2.921 c -1.313,0 -2.329,0.418 -3.048,1.254 -0.646,0.751 -0.968,1.762 -0.968,3.032 0,1.481 0.413,2.619 1.238,3.413 0.72,0.687 1.651,1.031 2.793,1.031 1.069,0 1.953,-0.275 2.651,-0.825 C 1.487,4.497 1.863,3.867 2,3.095 H -0.063 C -0.158,3.487 -0.354,3.796 -0.65,4.024 -0.947,4.251 -1.306,4.365 -1.73,4.365 -2.418,4.365 -2.942,4.089 -3.301,3.539 -3.64,3.021 -3.809,2.28 -3.809,1.317 c 0,-0.974 0.227,-1.709 0.682,-2.206 0.36,-0.391 0.815,-0.587 1.365,-0.587 0.466,0 0.85,0.126 1.151,0.38 C -0.309,-0.841 -0.106,-0.477 0,0" style="fill:#13294f;fill-opacity:1;fill-rule:nonzero;stroke:none" id="path46"></path>
        </g>
        <g id="g48" transform="translate(129.5002,27.0109)">
          <path d="m 0,0 -1.794,-0.318 c -0.613,-0.116 -1.053,-0.278 -1.317,-0.484 -0.264,-0.206 -0.397,-0.495 -0.397,-0.865 0,-0.772 0.471,-1.159 1.413,-1.159 0.614,0 1.132,0.201 1.556,0.604 C -0.18,-1.873 0,-1.466 0,-1 Z m -3.333,1.889 h -1.984 c 0.137,0.857 0.566,1.513 1.286,1.968 0.645,0.402 1.455,0.603 2.428,0.603 1.175,0 2.074,-0.301 2.699,-0.905 C 1.635,3.036 1.905,2.365 1.905,1.54 V -4.032 H 0.381 l -0.238,1.016 c -0.646,-0.836 -1.561,-1.254 -2.746,-1.254 -0.942,0 -1.672,0.254 -2.191,0.762 -0.455,0.444 -0.682,1.01 -0.682,1.698 0,0.773 0.28,1.376 0.841,1.81 0.508,0.402 1.296,0.693 2.365,0.873 L 0,1.254 v 0.397 c 0,0.497 -0.164,0.867 -0.492,1.111 -0.286,0.222 -0.677,0.333 -1.174,0.333 -0.985,0 -1.54,-0.402 -1.667,-1.206" style="fill:#13294f;fill-opacity:1;fill-rule:nonzero;stroke:none" id="path50"></path>
        </g>
        <g id="g52" transform="translate(61.3572,11.4753)">
          <path d="m 0,0 c 0.527,0 0.96,0.167 1.301,0.502 0.294,0.289 0.453,0.64 0.476,1.054 H 2.653 C 2.63,1.153 2.506,0.779 2.279,0.433 2.046,0.082 1.737,-0.196 1.352,-0.4 0.938,-0.621 0.482,-0.731 -0.017,-0.731 c -0.924,0 -1.638,0.314 -2.143,0.944 -0.442,0.555 -0.663,1.303 -0.663,2.244 0,1.077 0.303,1.902 0.91,2.474 0.504,0.477 1.159,0.715 1.964,0.715 0.765,0 1.4,-0.235 1.905,-0.706 C 2.375,4.554 2.605,4.093 2.645,3.554 H 1.769 C 1.712,4.002 1.511,4.351 1.165,4.6 0.859,4.815 0.487,4.923 0.051,4.923 -0.601,4.923 -1.103,4.691 -1.454,4.226 -1.778,3.8 -1.939,3.211 -1.939,2.457 -1.939,1.629 -1.735,0.995 -1.326,0.552 -0.987,0.184 -0.544,0 0,0" style="fill:#13294f;fill-opacity:1;fill-rule:nonzero;stroke:none" id="path54"></path>
        </g>
        <path d="m 65.762,10.871 h -0.817 v 6.122 h 0.817 z" style="fill:#13294f;fill-opacity:1;fill-rule:nonzero;stroke:none" id="path56"></path>
        <g id="g58" transform="translate(67.547,13.0824)">
          <path d="m 0,0 c 0,-0.567 0.145,-1.001 0.434,-1.301 0.238,-0.25 0.541,-0.374 0.91,-0.374 0.43,0 0.762,0.161 0.994,0.484 C 2.554,-0.896 2.662,-0.499 2.662,0 2.662,0.578 2.52,1.014 2.237,1.309 2.004,1.553 1.703,1.675 1.335,1.675 0.91,1.675 0.579,1.514 0.34,1.19 0.113,0.895 0,0.499 0,0 m -0.85,0 c 0,0.81 0.241,1.423 0.723,1.836 C 0.258,2.171 0.746,2.338 1.335,2.338 2.021,2.338 2.56,2.12 2.951,1.684 3.325,1.275 3.512,0.714 3.512,0 3.512,-0.799 3.277,-1.409 2.806,-1.829 2.421,-2.168 1.928,-2.338 1.327,-2.338 c -0.686,0 -1.228,0.226 -1.624,0.679 C -0.666,-1.244 -0.85,-0.692 -0.85,0" style="fill:#13294f;fill-opacity:1;fill-rule:nonzero;stroke:none" id="path60"></path>
        </g>
        <g id="g62" transform="translate(71.9514,15.2929)">
          <path d="m 0,0 h 0.817 v -2.9 c 0,-0.635 0.306,-0.952 0.918,-0.952 0.374,0 0.66,0.133 0.859,0.4 0.153,0.204 0.229,0.456 0.229,0.757 V 0 H 3.639 V -4.422 H 2.968 L 2.874,-3.911 C 2.563,-4.336 2.12,-4.549 1.548,-4.549 1.043,-4.549 0.655,-4.393 0.383,-4.082 0.128,-3.792 0,-3.392 0,-2.883 Z" style="fill:#13294f;fill-opacity:1;fill-rule:nonzero;stroke:none" id="path64"></path>
        </g>
        <g id="g66" transform="translate(77.3767,13.0398)">
          <path d="m 0,0 c 0,-0.55 0.136,-0.967 0.409,-1.25 0.226,-0.233 0.518,-0.349 0.875,-0.349 0.442,0 0.785,0.167 1.029,0.502 0.204,0.289 0.306,0.652 0.306,1.088 C 2.619,0.564 2.483,1 2.211,1.301 1.979,1.556 1.67,1.683 1.284,1.683 0.853,1.683 0.528,1.527 0.306,1.216 0.102,0.932 0,0.527 0,0 M 3.393,-2.168 H 2.721 l -0.145,0.62 c -0.339,-0.499 -0.83,-0.748 -1.47,-0.748 -0.618,0 -1.106,0.224 -1.463,0.672 -0.329,0.413 -0.493,0.961 -0.493,1.641 0,0.822 0.209,1.44 0.629,1.854 0.352,0.34 0.811,0.51 1.377,0.51 0.613,0 1.086,-0.23 1.42,-0.689 v 2.262 h 0.817 z" style="fill:#13294f;fill-opacity:1;fill-rule:nonzero;stroke:none" id="path68"></path>
        </g>
        <path d="M 85.191,13.252 H 82.13 v 0.722 h 3.061 z" style="fill:#13294f;fill-opacity:1;fill-rule:nonzero;stroke:none" id="path70"></path>
        <g id="g72" transform="translate(90.6586,16.9936)">
          <path d="m 0,0 h 0.774 v -6.122 h -1.097 l -2.951,5.127 V -6.122 H -4.065 V 0 h 1.149 L 0,-5.085 Z" style="fill:#13294f;fill-opacity:1;fill-rule:nonzero;stroke:none" id="path74"></path>
        </g>
        <g id="g76" transform="translate(94.1363,11.4327)">
          <path d="m 0,0 c 0.346,0 0.647,0.113 0.902,0.34 0.226,0.21 0.34,0.451 0.34,0.723 v 0.57 L 0.145,1.437 C -0.258,1.369 -0.533,1.264 -0.68,1.122 -0.799,1.009 -0.859,0.856 -0.859,0.663 -0.859,0.448 -0.785,0.283 -0.638,0.17 -0.49,0.056 -0.277,0 0,0 m -0.773,2.627 h -0.868 c 0.046,0.443 0.255,0.785 0.63,1.03 0.334,0.22 0.756,0.331 1.266,0.331 0.607,0 1.072,-0.159 1.395,-0.477 C 1.922,3.24 2.058,2.888 2.058,2.457 V -0.561 H 1.386 L 1.284,0.043 c -0.346,-0.488 -0.839,-0.732 -1.479,-0.732 -0.505,0 -0.899,0.136 -1.182,0.408 -0.233,0.227 -0.349,0.514 -0.349,0.859 0,0.437 0.15,0.774 0.451,1.012 0.266,0.21 0.674,0.363 1.224,0.459 L 1.242,2.27 v 0.221 c 0,0.289 -0.099,0.508 -0.298,0.655 -0.176,0.13 -0.416,0.196 -0.723,0.196 -0.601,0 -0.932,-0.239 -0.994,-0.715" style="fill:#13294f;fill-opacity:1;fill-rule:nonzero;stroke:none" id="path78"></path>
        </g>
        <g id="g80" transform="translate(99.3152,11.5262)">
          <path d="m 0,0 v -0.698 c -0.21,-0.056 -0.411,-0.084 -0.604,-0.084 -0.408,0 -0.714,0.127 -0.918,0.382 -0.176,0.21 -0.264,0.49 -0.264,0.842 V 3.07 h -0.655 v 0.697 h 0.655 l 0.051,1.063 h 0.766 V 3.767 h 0.952 V 3.07 H -0.969 V 0.425 c 0,-0.329 0.155,-0.493 0.467,-0.493 0.148,0 0.315,0.023 0.502,0.068" style="fill:#13294f;fill-opacity:1;fill-rule:nonzero;stroke:none" id="path82"></path>
        </g>
        <path d="m 100.897,10.871 h -0.817 v 4.422 h 0.817 z m 0.051,5.162 h -0.918 v 0.96 h 0.918 z" style="fill:#13294f;fill-opacity:1;fill-rule:nonzero;stroke:none" id="path84"></path>
        <g id="g86" transform="translate(104.9271,15.2929)">
          <path d="M 0,0 H 0.85 L -0.705,-4.422 H -1.811 L -3.35,0 h 0.893 l 1.224,-3.758 z" style="fill:#13294f;fill-opacity:1;fill-rule:nonzero;stroke:none" id="path88"></path>
        </g>
        <g id="g90" transform="translate(108.175,14.7659)">
          <path d="m 0,0 c -0.363,0 -0.655,-0.113 -0.876,-0.34 -0.21,-0.21 -0.343,-0.502 -0.399,-0.876 h 2.5 C 1.196,-0.791 1.055,-0.473 0.799,-0.264 0.595,-0.088 0.329,0 0,0 M 1.123,-2.619 H 2.007 C 1.882,-3.067 1.635,-3.418 1.267,-3.674 0.921,-3.906 0.507,-4.022 0.025,-4.022 c -0.697,0 -1.241,0.221 -1.632,0.663 -0.357,0.414 -0.536,0.972 -0.536,1.675 0,0.799 0.227,1.406 0.68,1.82 0.375,0.346 0.856,0.519 1.446,0.519 0.692,0 1.213,-0.224 1.565,-0.672 0.34,-0.431 0.51,-1.046 0.51,-1.845 h -3.367 c 0.034,-0.522 0.192,-0.91 0.476,-1.165 0.232,-0.204 0.527,-0.306 0.884,-0.306 0.278,0 0.519,0.076 0.723,0.229 0.17,0.131 0.286,0.292 0.349,0.485" style="fill:#13294f;fill-opacity:1;fill-rule:nonzero;stroke:none" id="path92"></path>
        </g>
        <g id="g94" transform="translate(116.1601,16.1261)">
          <path d="M 0,0 -1.191,-3.002 H 1.165 Z M 3.01,-5.255 H 2.049 l -0.604,1.548 h -2.916 l -0.612,-1.548 h -0.91 l 2.517,6.122 h 0.978 z" style="fill:#13294f;fill-opacity:1;fill-rule:nonzero;stroke:none" id="path96"></path>
        </g>
        <g id="g98" transform="translate(123.1582,13.1333)">
          <path d="M 0,0 C 0,0.555 -0.139,0.972 -0.417,1.25 -0.638,1.476 -0.927,1.59 -1.284,1.59 -1.698,1.59 -2.027,1.44 -2.27,1.139 -2.503,0.85 -2.619,0.471 -2.619,0 c 0,-0.567 0.139,-1.001 0.417,-1.301 0.232,-0.261 0.538,-0.391 0.918,-0.391 0.425,0 0.748,0.156 0.97,0.467 C -0.105,-0.936 0,-0.528 0,0 m -3.393,2.16 h 0.672 l 0.127,-0.578 c 0.363,0.47 0.862,0.705 1.497,0.705 0.635,0 1.128,-0.226 1.48,-0.68 0.311,-0.408 0.467,-0.949 0.467,-1.624 0,-0.8 -0.212,-1.412 -0.637,-1.837 -0.357,-0.357 -0.814,-0.535 -1.369,-0.535 -0.63,0 -1.103,0.232 -1.42,0.697 v -2.101 h -0.817 z" style="fill:#13294f;fill-opacity:1;fill-rule:nonzero;stroke:none" id="path100"></path>
        </g>
        <g id="g102" transform="translate(128.3365,13.1333)">
          <path d="M 0,0 C 0,0.555 -0.139,0.972 -0.417,1.25 -0.638,1.476 -0.927,1.59 -1.284,1.59 -1.698,1.59 -2.027,1.44 -2.27,1.139 -2.503,0.85 -2.619,0.471 -2.619,0 c 0,-0.567 0.139,-1.001 0.417,-1.301 0.232,-0.261 0.538,-0.391 0.918,-0.391 0.425,0 0.748,0.156 0.97,0.467 C -0.105,-0.936 0,-0.528 0,0 m -3.393,2.16 h 0.672 l 0.127,-0.578 c 0.363,0.47 0.862,0.705 1.497,0.705 0.635,0 1.128,-0.226 1.48,-0.68 0.311,-0.408 0.467,-0.949 0.467,-1.624 0,-0.8 -0.212,-1.412 -0.637,-1.837 -0.357,-0.357 -0.814,-0.535 -1.369,-0.535 -0.63,0 -1.103,0.232 -1.42,0.697 v -2.101 h -0.817 z" style="fill:#13294f;fill-opacity:1;fill-rule:nonzero;stroke:none" id="path104"></path>
        </g>
        <path d="m 130.938,10.871 h -0.817 v 6.122 h 0.817 z" style="fill:#13294f;fill-opacity:1;fill-rule:nonzero;stroke:none" id="path106"></path>
        <path d="m 132.945,10.871 h -0.817 v 4.422 h 0.817 z m 0.051,5.162 h -0.918 v 0.96 h 0.918 z" style="fill:#13294f;fill-opacity:1;fill-rule:nonzero;stroke:none" id="path108"></path>
        <g id="g110" transform="translate(137.0181,12.2913)">
          <path d="M 0,0 H 0.893 C 0.825,-0.476 0.601,-0.859 0.221,-1.148 c -0.346,-0.266 -0.768,-0.399 -1.267,-0.399 -0.652,0 -1.171,0.223 -1.556,0.671 -0.357,0.414 -0.536,0.958 -0.536,1.633 0,0.782 0.216,1.389 0.647,1.819 0.368,0.369 0.847,0.554 1.437,0.554 0.544,0 0.991,-0.146 1.343,-0.435 C 0.601,2.44 0.791,2.106 0.859,1.692 H -0.043 C -0.099,1.93 -0.214,2.114 -0.387,2.245 -0.56,2.376 -0.777,2.44 -1.037,2.44 -1.44,2.44 -1.749,2.282 -1.964,1.964 -2.168,1.67 -2.27,1.258 -2.27,0.731 c 0,-0.549 0.136,-0.966 0.408,-1.25 0.215,-0.227 0.493,-0.34 0.833,-0.34 0.295,0 0.536,0.085 0.723,0.256 C -0.142,-0.456 -0.04,-0.255 0,0" style="fill:#13294f;fill-opacity:1;fill-rule:nonzero;stroke:none" id="path112"></path>
        </g>
        <g id="g114" transform="translate(140.317,11.4327)">
          <path d="m 0,0 c 0.346,0 0.647,0.113 0.902,0.34 0.226,0.21 0.34,0.451 0.34,0.723 v 0.57 L 0.145,1.437 C -0.258,1.369 -0.533,1.264 -0.68,1.122 -0.799,1.009 -0.859,0.856 -0.859,0.663 -0.859,0.448 -0.785,0.283 -0.638,0.17 -0.49,0.056 -0.277,0 0,0 m -0.773,2.627 h -0.868 c 0.046,0.443 0.255,0.785 0.63,1.03 0.334,0.22 0.756,0.331 1.266,0.331 0.607,0 1.072,-0.159 1.395,-0.477 C 1.922,3.24 2.058,2.888 2.058,2.457 V -0.561 H 1.386 L 1.284,0.043 c -0.346,-0.488 -0.839,-0.732 -1.479,-0.732 -0.505,0 -0.899,0.136 -1.182,0.408 -0.233,0.227 -0.349,0.514 -0.349,0.859 0,0.437 0.15,0.774 0.451,1.012 0.266,0.21 0.674,0.363 1.224,0.459 L 1.242,2.27 v 0.221 c 0,0.289 -0.099,0.508 -0.298,0.655 -0.176,0.13 -0.416,0.196 -0.723,0.196 -0.601,0 -0.932,-0.239 -0.994,-0.715" style="fill:#13294f;fill-opacity:1;fill-rule:nonzero;stroke:none" id="path116"></path>
        </g>
        <g id="g118" transform="translate(145.4959,11.5262)">
          <path d="m 0,0 v -0.698 c -0.21,-0.056 -0.411,-0.084 -0.604,-0.084 -0.408,0 -0.714,0.127 -0.918,0.382 -0.176,0.21 -0.264,0.49 -0.264,0.842 V 3.07 h -0.655 v 0.697 h 0.655 l 0.051,1.063 h 0.766 V 3.767 h 0.952 V 3.07 H -0.969 V 0.425 c 0,-0.329 0.155,-0.493 0.467,-0.493 0.148,0 0.315,0.023 0.502,0.068" style="fill:#13294f;fill-opacity:1;fill-rule:nonzero;stroke:none" id="path120"></path>
        </g>
        <path d="m 147.077,10.871 h -0.817 v 4.422 h 0.817 z m 0.051,5.162 h -0.918 v 0.96 h 0.918 z" style="fill:#13294f;fill-opacity:1;fill-rule:nonzero;stroke:none" id="path122"></path>
        <g id="g124" transform="translate(148.8623,13.0824)">
          <path d="m 0,0 c 0,-0.567 0.145,-1.001 0.434,-1.301 0.238,-0.25 0.541,-0.374 0.91,-0.374 0.43,0 0.762,0.161 0.994,0.484 C 2.554,-0.896 2.662,-0.499 2.662,0 2.662,0.578 2.52,1.014 2.237,1.309 2.004,1.553 1.703,1.675 1.335,1.675 0.91,1.675 0.579,1.514 0.34,1.19 0.113,0.895 0,0.499 0,0 m -0.85,0 c 0,0.81 0.241,1.423 0.723,1.836 C 0.258,2.171 0.746,2.338 1.335,2.338 2.021,2.338 2.56,2.12 2.951,1.684 3.325,1.275 3.512,0.714 3.512,0 3.512,-0.799 3.277,-1.409 2.806,-1.829 2.421,-2.168 1.928,-2.338 1.327,-2.338 c -0.686,0 -1.228,0.226 -1.624,0.679 C -0.666,-1.244 -0.85,-0.692 -0.85,0" style="fill:#13294f;fill-opacity:1;fill-rule:nonzero;stroke:none" id="path126"></path>
        </g>
        <g id="g128" transform="translate(154.1265,10.8713)">
          <path d="m 0,0 h -0.817 v 4.422 h 0.673 L -0.051,3.86 C 0.277,4.32 0.725,4.549 1.292,4.549 1.814,4.549 2.213,4.388 2.491,4.065 2.735,3.776 2.857,3.381 2.857,2.883 V 0 H 2.041 V 2.874 C 2.041,3.526 1.726,3.852 1.097,3.852 0.768,3.852 0.499,3.738 0.289,3.512 0.096,3.308 0,3.047 0,2.73 Z" style="fill:#13294f;fill-opacity:1;fill-rule:nonzero;stroke:none" id="path130"></path>
        </g>
        <g id="g132" transform="translate(164.3891,12.5293)">
          <path d="m 0,0 c 0,0.204 -0.045,0.366 -0.136,0.485 -0.102,0.142 -0.289,0.272 -0.561,0.391 -0.272,0.119 -0.683,0.255 -1.233,0.408 -0.737,0.204 -1.244,0.457 -1.522,0.757 -0.227,0.244 -0.34,0.57 -0.34,0.978 0,0.493 0.215,0.884 0.646,1.173 0.397,0.267 0.913,0.4 1.547,0.4 0.709,0 1.285,-0.168 1.727,-0.502 C 0.524,3.795 0.757,3.41 0.825,2.934 h -0.893 c -0.051,0.323 -0.221,0.564 -0.51,0.723 -0.255,0.147 -0.596,0.22 -1.021,0.22 -0.476,0 -0.827,-0.09 -1.054,-0.271 -0.181,-0.142 -0.272,-0.326 -0.272,-0.553 0,-0.148 0.024,-0.268 0.072,-0.361 0.048,-0.094 0.132,-0.178 0.251,-0.251 0.221,-0.148 0.649,-0.31 1.284,-0.485 0.885,-0.25 1.482,-0.533 1.794,-0.85 0.261,-0.261 0.391,-0.618 0.391,-1.072 0,-0.538 -0.235,-0.983 -0.705,-1.335 -0.443,-0.323 -1.003,-0.484 -1.684,-0.484 -0.708,0 -1.295,0.19 -1.76,0.569 -0.403,0.329 -0.644,0.754 -0.723,1.276 h 0.893 c 0.057,-0.374 0.235,-0.661 0.536,-0.859 0.272,-0.181 0.617,-0.272 1.037,-0.272 0.521,0 0.921,0.119 1.199,0.357 C -0.113,-0.521 0,-0.283 0,0" style="fill:#13294f;fill-opacity:1;fill-rule:nonzero;stroke:none" id="path134"></path>
        </g>
        <g id="g136" transform="translate(168.122,14.7659)">
          <path d="m 0,0 c -0.363,0 -0.655,-0.113 -0.876,-0.34 -0.21,-0.21 -0.343,-0.502 -0.399,-0.876 h 2.5 C 1.196,-0.791 1.055,-0.473 0.799,-0.264 0.595,-0.088 0.329,0 0,0 M 1.123,-2.619 H 2.007 C 1.882,-3.067 1.635,-3.418 1.267,-3.674 0.921,-3.906 0.507,-4.022 0.025,-4.022 c -0.697,0 -1.241,0.221 -1.632,0.663 -0.357,0.414 -0.536,0.972 -0.536,1.675 0,0.799 0.227,1.406 0.68,1.82 0.375,0.346 0.856,0.519 1.446,0.519 0.692,0 1.213,-0.224 1.565,-0.672 0.34,-0.431 0.51,-1.046 0.51,-1.845 h -3.367 c 0.034,-0.522 0.192,-0.91 0.476,-1.165 0.232,-0.204 0.527,-0.306 0.884,-0.306 0.278,0 0.519,0.076 0.723,0.229 0.17,0.131 0.286,0.292 0.349,0.485" style="fill:#13294f;fill-opacity:1;fill-rule:nonzero;stroke:none" id="path138"></path>
        </g>
        <g id="g140" transform="translate(174.0405,12.2913)">
          <path d="M 0,0 H 0.893 C 0.825,-0.476 0.601,-0.859 0.221,-1.148 c -0.346,-0.266 -0.768,-0.399 -1.267,-0.399 -0.652,0 -1.171,0.223 -1.556,0.671 -0.357,0.414 -0.536,0.958 -0.536,1.633 0,0.782 0.216,1.389 0.647,1.819 0.368,0.369 0.847,0.554 1.437,0.554 0.544,0 0.991,-0.146 1.343,-0.435 C 0.601,2.44 0.791,2.106 0.859,1.692 H -0.043 C -0.099,1.93 -0.214,2.114 -0.387,2.245 -0.56,2.376 -0.777,2.44 -1.037,2.44 -1.44,2.44 -1.749,2.282 -1.964,1.964 -2.168,1.67 -2.27,1.258 -2.27,0.731 c 0,-0.549 0.136,-0.966 0.408,-1.25 0.215,-0.227 0.493,-0.34 0.833,-0.34 0.295,0 0.536,0.085 0.723,0.256 C -0.142,-0.456 -0.04,-0.255 0,0" style="fill:#13294f;fill-opacity:1;fill-rule:nonzero;stroke:none" id="path142"></path>
        </g>
        <g id="g144" transform="translate(175.8259,15.2929)">
          <path d="m 0,0 h 0.817 v -2.9 c 0,-0.635 0.306,-0.952 0.918,-0.952 0.374,0 0.66,0.133 0.859,0.4 0.153,0.204 0.229,0.456 0.229,0.757 V 0 H 3.639 V -4.422 H 2.968 L 2.874,-3.911 C 2.563,-4.336 2.12,-4.549 1.548,-4.549 1.043,-4.549 0.655,-4.393 0.383,-4.082 0.128,-3.792 0,-3.392 0,-2.883 Z" style="fill:#13294f;fill-opacity:1;fill-rule:nonzero;stroke:none" id="path146"></path>
        </g>
        <g id="g148" transform="translate(181.472,10.8713)">
          <path d="m 0,0 h -0.817 v 4.422 h 0.673 l 0.11,-0.655 C 0.215,4.288 0.59,4.549 1.088,4.549 1.253,4.549 1.414,4.53 1.573,4.49 V 3.674 C 1.38,3.725 1.207,3.75 1.054,3.75 0.725,3.75 0.468,3.617 0.281,3.35 0.094,3.084 0,2.707 0,2.219 Z" style="fill:#13294f;fill-opacity:1;fill-rule:nonzero;stroke:none" id="path150"></path>
        </g>
        <path d="m 184.499,10.871 h -0.817 v 4.422 h 0.817 z m 0.051,5.162 h -0.918 v 0.96 h 0.918 z" style="fill:#13294f;fill-opacity:1;fill-rule:nonzero;stroke:none" id="path152"></path>
        <g id="g154" transform="translate(187.6624,11.5262)">
          <path d="m 0,0 v -0.698 c -0.21,-0.056 -0.411,-0.084 -0.604,-0.084 -0.408,0 -0.714,0.127 -0.918,0.382 -0.176,0.21 -0.264,0.49 -0.264,0.842 V 3.07 h -0.655 v 0.697 h 0.655 l 0.051,1.063 h 0.766 V 3.767 h 0.952 V 3.07 H -0.969 V 0.425 c 0,-0.329 0.155,-0.493 0.467,-0.493 0.148,0 0.315,0.023 0.502,0.068" style="fill:#13294f;fill-opacity:1;fill-rule:nonzero;stroke:none" id="path156"></path>
        </g>
        <g id="g158" transform="translate(192.1177,15.2929)">
          <path d="m 0,0 -1.539,-4.481 c -0.204,-0.595 -0.4,-1.001 -0.587,-1.216 -0.221,-0.255 -0.507,-0.383 -0.858,-0.383 -0.148,0 -0.324,0.026 -0.527,0.077 v 0.663 c 0.158,-0.039 0.3,-0.059 0.425,-0.059 0.175,0 0.311,0.061 0.408,0.182 0.096,0.122 0.218,0.387 0.366,0.795 H -2.576 L -4.2,0 h 0.884 l 1.25,-3.758 1.25,3.758 z" style="fill:#13294f;fill-opacity:1;fill-rule:nonzero;stroke:none" id="path160"></path>
        </g>
        <g id="g162" transform="translate(193.4613,11.8578)">
          <path d="m 0,0 v -0.859 c 0,-0.47 -0.133,-0.831 -0.4,-1.08 -0.187,-0.181 -0.425,-0.289 -0.714,-0.323 v 0.425 c 0.352,0.074 0.527,0.357 0.527,0.85 h -0.4 V 0 Z" style="fill:#13294f;fill-opacity:1;fill-rule:nonzero;stroke:none" id="path164"></path>
        </g>
        <g id="g166" transform="translate(201.0971,12.5293)">
          <path d="m 0,0 c 0,0.204 -0.045,0.366 -0.136,0.485 -0.102,0.142 -0.289,0.272 -0.561,0.391 -0.272,0.119 -0.683,0.255 -1.233,0.408 -0.737,0.204 -1.244,0.457 -1.522,0.757 -0.227,0.244 -0.34,0.57 -0.34,0.978 0,0.493 0.215,0.884 0.646,1.173 0.397,0.267 0.913,0.4 1.547,0.4 0.709,0 1.285,-0.168 1.727,-0.502 C 0.524,3.795 0.757,3.41 0.825,2.934 h -0.893 c -0.051,0.323 -0.221,0.564 -0.51,0.723 -0.255,0.147 -0.596,0.22 -1.021,0.22 -0.476,0 -0.827,-0.09 -1.054,-0.271 -0.181,-0.142 -0.272,-0.326 -0.272,-0.553 0,-0.148 0.024,-0.268 0.072,-0.361 0.048,-0.094 0.132,-0.178 0.251,-0.251 0.221,-0.148 0.649,-0.31 1.284,-0.485 0.885,-0.25 1.482,-0.533 1.794,-0.85 0.261,-0.261 0.391,-0.618 0.391,-1.072 0,-0.538 -0.235,-0.983 -0.705,-1.335 -0.443,-0.323 -1.003,-0.484 -1.684,-0.484 -0.708,0 -1.295,0.19 -1.76,0.569 -0.403,0.329 -0.644,0.754 -0.723,1.276 h 0.893 c 0.057,-0.374 0.235,-0.661 0.536,-0.859 0.272,-0.181 0.617,-0.272 1.037,-0.272 0.521,0 0.921,0.119 1.199,0.357 C -0.113,-0.521 0,-0.283 0,0" style="fill:#13294f;fill-opacity:1;fill-rule:nonzero;stroke:none" id="path168"></path>
        </g>
        <path d="m 203.759,10.871 h -0.817 v 4.422 h 0.817 z m 0.051,5.162 h -0.918 v 0.96 h 0.918 z" style="fill:#13294f;fill-opacity:1;fill-rule:nonzero;stroke:none" id="path170"></path>
        <g id="g172" transform="translate(205.7656,10.8713)">
          <path d="m 0,0 h -0.817 v 4.422 h 0.673 L -0.06,3.903 c 0.301,0.431 0.734,0.646 1.301,0.646 0.618,0 1.052,-0.232 1.301,-0.697 0.295,0.465 0.774,0.697 1.437,0.697 0.494,0 0.873,-0.15 1.14,-0.45 C 5.357,3.821 5.476,3.441 5.476,2.959 V 0 H 4.66 v 2.9 c 0,0.634 -0.287,0.952 -0.859,0.952 -0.34,0 -0.612,-0.133 -0.817,-0.4 C 2.82,3.237 2.738,2.984 2.738,2.695 V 0 H 1.922 V 2.9 C 1.922,3.534 1.635,3.852 1.063,3.852 0.745,3.852 0.482,3.727 0.272,3.478 0.09,3.268 0,3.016 0,2.721 Z" style="fill:#13294f;fill-opacity:1;fill-rule:nonzero;stroke:none" id="path174"></path>
        </g>
        <g id="g176" transform="translate(215.7824,13.1333)">
          <path d="M 0,0 C 0,0.555 -0.139,0.972 -0.417,1.25 -0.638,1.476 -0.927,1.59 -1.284,1.59 -1.698,1.59 -2.027,1.44 -2.27,1.139 -2.503,0.85 -2.619,0.471 -2.619,0 c 0,-0.567 0.139,-1.001 0.417,-1.301 0.232,-0.261 0.538,-0.391 0.918,-0.391 0.425,0 0.748,0.156 0.97,0.467 C -0.105,-0.936 0,-0.528 0,0 m -3.393,2.16 h 0.672 l 0.127,-0.578 c 0.363,0.47 0.862,0.705 1.497,0.705 0.635,0 1.128,-0.226 1.48,-0.68 0.311,-0.408 0.467,-0.949 0.467,-1.624 0,-0.8 -0.212,-1.412 -0.637,-1.837 -0.358,-0.357 -0.814,-0.535 -1.369,-0.535 -0.63,0 -1.103,0.232 -1.42,0.697 v -2.101 h -0.817 z" style="fill:#13294f;fill-opacity:1;fill-rule:nonzero;stroke:none" id="path178"></path>
        </g>
        <path d="m 218.384,10.871 h -0.817 v 6.122 h 0.817 z" style="fill:#13294f;fill-opacity:1;fill-rule:nonzero;stroke:none" id="path180"></path>
        <path d="m 220.391,10.871 h -0.817 v 4.422 h 0.817 z m 0.051,5.162 h -0.918 v 0.96 h 0.918 z" style="fill:#13294f;fill-opacity:1;fill-rule:nonzero;stroke:none" id="path182"></path>
        <g id="g184" transform="translate(224.2768,16.9343)">
          <path d="m 0,0 v -0.706 c -0.385,0.096 -0.694,0.145 -0.927,0.145 -0.255,0 -0.439,-0.043 -0.552,-0.128 C -1.593,-0.774 -1.65,-0.91 -1.65,-1.097 V -1.641 H 0.647 V -6.063 H -0.17 v 3.725 h -1.48 v -3.725 h -0.816 v 3.725 h -0.655 v 0.697 h 0.655 v 0.493 c 0,0.413 0.125,0.734 0.375,0.961 0.243,0.221 0.589,0.331 1.037,0.331 C -0.726,0.144 -0.374,0.096 0,0" style="fill:#13294f;fill-opacity:1;fill-rule:nonzero;stroke:none" id="path186"></path>
        </g>
        <g id="g188" transform="translate(228.0009,14.7659)">
          <path d="m 0,0 c -0.363,0 -0.655,-0.113 -0.876,-0.34 -0.21,-0.21 -0.343,-0.502 -0.399,-0.876 h 2.5 C 1.196,-0.791 1.055,-0.473 0.799,-0.264 0.595,-0.088 0.329,0 0,0 M 1.123,-2.619 H 2.007 C 1.882,-3.067 1.635,-3.418 1.267,-3.674 0.921,-3.906 0.507,-4.022 0.025,-4.022 c -0.697,0 -1.241,0.221 -1.632,0.663 -0.357,0.414 -0.536,0.972 -0.536,1.675 0,0.799 0.227,1.406 0.68,1.82 0.375,0.346 0.856,0.519 1.446,0.519 0.692,0 1.213,-0.224 1.565,-0.672 0.34,-0.431 0.51,-1.046 0.51,-1.845 h -3.367 c 0.034,-0.522 0.192,-0.91 0.476,-1.165 0.232,-0.204 0.527,-0.306 0.884,-0.306 0.278,0 0.519,0.076 0.723,0.229 0.17,0.131 0.286,0.292 0.349,0.485" style="fill:#13294f;fill-opacity:1;fill-rule:nonzero;stroke:none" id="path190"></path>
        </g>
        <g id="g192" transform="translate(231.6319,13.0398)">
          <path d="m 0,0 c 0,-0.55 0.136,-0.967 0.409,-1.25 0.226,-0.233 0.518,-0.349 0.875,-0.349 0.442,0 0.785,0.167 1.029,0.502 0.204,0.289 0.306,0.652 0.306,1.088 C 2.619,0.564 2.483,1 2.211,1.301 1.979,1.556 1.67,1.683 1.284,1.683 0.853,1.683 0.528,1.527 0.306,1.216 0.102,0.932 0,0.527 0,0 M 3.393,-2.168 H 2.721 l -0.145,0.62 c -0.339,-0.499 -0.83,-0.748 -1.47,-0.748 -0.618,0 -1.106,0.224 -1.463,0.672 -0.329,0.413 -0.493,0.961 -0.493,1.641 0,0.822 0.209,1.44 0.629,1.854 0.352,0.34 0.811,0.51 1.377,0.51 0.613,0 1.086,-0.23 1.42,-0.689 v 2.262 h 0.817 z" style="fill:#13294f;fill-opacity:1;fill-rule:nonzero;stroke:none" id="path194"></path>
        </g>
        <g id="g196" transform="translate(20.7089,24.7933)">
          <path d="m 0,0 c 0,2.477 -0.018,4.954 0.01,7.43 0.009,0.844 -0.016,1.693 0.144,2.533 0.599,3.152 3.375,5.634 6.578,5.667 5.902,0.059 11.805,0.021 17.708,0.017 0.314,0 0.629,-0.046 0.941,-0.091 3.284,-0.471 5.904,-3.392 5.922,-6.707 0.031,-5.867 0.034,-11.735 10e-4,-17.603 -0.02,-3.688 -3.142,-6.788 -6.838,-6.805 -5.853,-0.028 -11.707,-0.027 -17.56,0 -3.743,0.017 -6.8,3.092 -6.862,6.834 C 0.02,-7.263 0.009,-5.801 0.001,-4.338 -0.006,-2.892 0,-1.446 0,0" style="fill:#00baeb;fill-opacity:1;fill-rule:nonzero;stroke:none" id="path198"></path>
        </g>
        <g id="g200" transform="translate(27.2382,27.3825)">
          <path d="m 0,0 c 0,1.745 0.013,3.49 -0.009,5.234 -0.006,0.495 0.171,0.76 0.642,0.914 2.573,0.842 5.14,1.701 7.707,2.561 0.347,0.116 0.676,0.115 1.022,-10e-4 2.552,-0.854 5.104,-1.71 7.662,-2.546 0.484,-0.158 0.684,-0.416 0.679,-0.939 -0.022,-2.342 -0.004,-4.686 -0.014,-7.029 -0.001,-0.334 0.051,-0.511 0.434,-0.628 1.193,-0.364 1.906,-1.227 2.212,-2.418 0.068,-0.265 0.189,-0.424 0.406,-0.576 1.153,-0.803 1.661,-2.26 1.261,-3.555 -0.424,-1.371 -1.541,-2.185 -3.036,-2.194 -1.429,-0.009 -4.571,-0.032 -4.684,0.018 -0.743,-0.018 -1.111,-0.076 -1.611,-0.416 -1.099,-0.747 -2.226,-1.454 -3.341,-2.177 -0.281,-0.182 -0.573,-0.271 -0.879,-0.065 -1.915,1.288 -3.939,2.418 -5.711,3.911 C 1.463,-8.83 0.399,-7.593 0.066,-5.878 -0.02,-5.432 0.003,-4.984 0.002,-4.536 -0.002,-3.024 0,-1.512 0,0" style="fill:#13294f;fill-opacity:1;fill-rule:nonzero;stroke:none" id="path202"></path>
        </g>
        <g id="g204" transform="translate(41.2215,17.5015)">
          <path d="m 0,0 c -0.794,0.293 -1.274,0.992 -1.256,1.83 0.018,0.813 0.548,1.615 1.341,1.776 0.65,0.132 0.847,0.458 0.93,1.06 0.128,0.928 0.716,1.51 1.62,1.743 C 3.488,6.628 4.21,6.363 4.788,5.723 5.093,5.385 5.297,4.978 5.298,4.51 5.298,4.094 5.473,3.849 5.855,3.667 6.603,3.31 7.099,2.389 6.982,1.561 6.875,0.81 6.511,0.224 5.727,-0.003 4.362,-0.191 2.991,-0.056 1.624,-0.092 1.081,-0.106 0.536,-0.114 0,0" style="fill:#00baeb;fill-opacity:1;fill-rule:nonzero;stroke:none" id="path206"></path>
        </g>
      </g>
    </g>
  </g>
</svg>
